<svg width="79" height="44" viewBox="0 0 79 44" fill="none" xmlns="http://www.w3.org/2000/svg">
<path d="M12.696 19.9438C12.3348 20.7669 9.73202 26.5843 9.87228 21.8762C9.97349 21.0145 10.0338 20.16 10.0122 19.32C9.92803 19.0817 9.92566 18.829 9.77404 18.6869C9.53336 18.5184 9.21806 18.4052 8.97738 18.2367C8.75835 18.1909 8.61632 18.3426 8.54406 18.6506C8.47181 18.9587 8.40677 19.3077 8.37544 19.6086C8.26948 19.9648 8.28629 20.2994 8.21403 20.6075C8.01892 21.6545 7.85751 22.6534 7.98254 23.6018C8.03305 23.8882 7.9608 24.1963 7.96317 24.449C7.81856 25.7825 7.7558 27.1015 7.65211 28.4277L7.50741 30.4785C7.45196 31.1212 6.85466 33.7158 6.84013 34.3513C6.72933 34.9193 6.82313 35.4513 6.78695 35.9639C6.69769 37.372 6.60123 38.7392 6.06907 40.2676C6.04258 40.3566 6.03773 40.5684 6.08587 40.6021C6.35303 40.6816 6.59371 40.8501 6.92829 40.8333C7.47468 40.8214 7.89831 40.831 8.18949 41.286C8.23762 41.3197 8.27854 41.3125 8.40852 41.3318C8.64198 41.4594 8.83937 41.3824 9.01995 40.9708C9.12591 40.6146 9.15002 40.2728 9.14765 40.0201C9.10476 36.9054 11.6015 32.1616 12.4131 29.1072C12.8777 28.3924 13.157 27.5837 13.4508 26.8568C15.8827 21.0274 14.363 27.2444 14.2636 31.9453C14.4465 32.5037 14.2539 33.0862 13.9192 33.8203C13.5701 34.4725 13.3172 35.1922 13.0235 35.9191C12.8236 36.4606 12.8573 36.4125 13.1799 36.5666C13.5577 36.7953 14.0969 36.7424 14.5277 36.793C15.2185 36.8822 15.866 36.7258 16.6339 36.2951C17.0624 36.0929 17.4427 35.8571 17.5873 35.2409C17.6354 35.2746 17.6763 35.2674 17.6835 35.3084C17.8376 34.9858 17.9989 34.7042 18.1121 34.3889L18.1939 34.3745C18.1 34.5598 18.1698 34.7163 18.2131 34.9618C18.6922 34.3288 19.1255 33.9149 19.3519 33.2843C19.9057 31.8787 21.9017 27.6451 22.1281 26.2972C22.1811 26.1191 22.2341 25.9409 22.4098 25.7412C22.3954 25.6593 22.4556 25.5222 22.5711 25.4596C23.0453 25.0384 23.2139 24.7978 23.3247 24.2297C23.3439 24.0997 23.4041 23.9626 23.3825 23.8398C23.3825 23.8398 23.4162 23.7917 23.498 23.7772C23.5053 23.8181 23.5534 23.8519 23.6015 23.8856C25.6986 19.5075 25.6143 19.9865 25.6355 23.6957L25.7582 23.674C25.8955 23.017 26.0328 22.3599 26.211 21.6956L26.2591 21.7293L26.2952 21.9339C26.0882 22.4345 26.0038 22.9135 26.165 23.3492C26.1386 23.4382 26.2083 23.5947 26.1072 23.7391C25.852 24.206 26.2925 24.5503 25.9554 25.0316C25.9217 25.0798 25.9361 25.1616 25.9843 25.1953C26.1888 25.8765 25.9576 26.7189 25.9647 27.4771C25.9815 27.8117 25.9092 28.1198 25.8779 28.4207C25.837 28.4279 25.837 28.4279 25.7287 28.5314C25.6926 28.3268 25.7383 28.1077 25.7095 27.9441C25.565 28.5602 25.5432 29.1547 25.4661 29.6746C25.442 30.0164 25.4323 30.4401 25.3673 30.7891C25.408 32.2164 25.4752 33.5547 25.3258 35.1C25.1741 35.6753 25.4243 36.1374 25.9779 36.1664C26.1488 36.1785 26.2788 36.1977 26.3341 36.2724C26.493 36.4553 26.6976 36.4192 26.9768 36.3278C27.2151 36.2436 27.3307 36.181 27.4534 36.1594C27.9782 36.0247 28.0119 35.9765 28.1564 35.3604C28.2912 35.1678 28.4741 35.009 28.5271 34.8309C28.7631 34.4939 28.869 34.1377 28.8329 33.9331C28.5562 33.56 28.7296 33.1075 28.6309 32.7873C28.4143 32.277 28.8044 31.6176 28.5276 31.2444C28.4795 31.2107 28.5132 31.1626 28.4651 31.1289C28.6818 30.2046 28.6266 29.4127 28.6869 28.5583C28.7038 28.1755 28.6942 27.8819 28.4077 27.9324C28.1093 27.4365 28.7184 26.8228 28.7401 26.2283C28.5909 26.339 28.5981 26.3799 28.5572 26.3871L28.6632 25.3136C28.6416 25.1909 28.6681 25.1018 28.6609 25.0609C28.9354 24.464 28.9041 24.0476 28.702 23.6191C28.5985 23.5108 28.6515 23.3326 28.6708 23.2027C28.743 22.8946 29.1017 22.536 28.772 22.341C28.7166 22.2664 28.7503 22.2182 28.7431 22.1773C29.0994 21.566 29.0056 21.034 28.9937 20.4876C29.0082 19.8522 28.9409 19.2312 28.9289 18.6848C28.8761 18.1456 28.8497 17.5174 28.8305 16.9301C28.7994 15.7964 29.1365 14.5977 29.4592 13.3172C29.4448 13.2354 29.505 13.0982 29.5243 12.9682C29.4305 12.4363 29.3294 11.8634 28.7349 11.8416C28.694 11.8489 28.6459 11.8152 28.5568 11.7887C28.3354 11.4902 28.0394 11.247 27.7096 11.052C27.3799 10.857 26.9419 10.7655 26.5254 10.7967C26.1018 10.787 25.772 11.3093 25.3724 11.6751C24.2963 12.7509 23.3863 14.0505 22.6616 15.4441C22.2402 16.4044 21.6744 17.2636 21.2459 18.183C20.9425 18.6163 20.721 19.0351 20.6367 19.514C19.3823 21.9714 17.7692 24.7874 18.8603 19.4897C18.9591 19.0926 18.9279 18.6762 19.0531 18.19C19.2963 17.1767 19.1951 18.0383 19.0701 17.09C19.0557 17.0081 19.0003 16.9335 19.0749 16.8782C19.2555 16.4666 19.2122 16.2211 19.1208 15.9418C19.0654 15.8672 19.0968 15.5663 19.0679 15.4027C18.8947 15.1379 18.5529 15.1137 18.0763 15.2822C17.6069 15.4915 17.2579 15.4265 16.8607 15.3277C16.6345 15.2411 16.2445 15.1832 16.0134 15.3084C15.2383 15.6982 14.5402 16.2854 14.1189 17.2457L13.6494 18.1724C13.3749 18.7693 12.9704 19.3469 12.696 19.9438ZM20.9928 20.3373C21.1373 19.7211 22.1486 17.5598 22.5675 17.064C22.1991 17.8462 22.1244 18.6188 21.6188 19.3409C21.5514 19.4371 21.4912 19.5743 21.5128 19.6971C21.4671 19.9161 21.2985 20.1568 20.9928 20.3373ZM18.2408 26.2653C18.4696 25.1702 19.4255 22.9342 19.9455 22.294C19.9816 22.4986 19.9021 22.7658 19.8082 22.9511C19.281 23.5504 19.0547 24.181 18.9102 24.7972C18.7705 25.2015 18.6308 25.6059 18.4767 25.9284C18.4165 26.0656 18.3491 26.1618 18.2408 26.2653ZM14.1958 34.9107C14.2223 34.8217 14.2079 34.7398 14.1863 34.6171C14.22 34.5689 14.3283 34.4654 14.3813 34.2873L14.4173 34.4919L14.2777 34.8963L14.1958 34.9107Z" fill="url(#paint0_linear_208_7)"/>
<path d="M47.033 4.56475C47.122 4.59124 47.2183 4.65865 47.3001 4.64422C47.8537 4.67318 48.441 4.65401 48.9874 4.64205L49.7673 4.7577C49.618 4.8684 49.5362 4.88283 49.4544 4.89726L48.3207 4.92839C47.6515 4.962 46.9751 4.95468 46.2193 5.21453C45.9064 5.35409 45.6199 5.4046 45.2926 5.46232L44.3514 5.62827C44.1468 5.66435 43.9278 5.61859 43.6895 5.7028C43.0155 5.94822 42.3415 6.19364 41.6603 6.39814L38.4733 7.4664C38.0785 7.6204 37.7102 7.68533 37.3587 8.08485C37.2913 8.18112 37.1758 8.24368 37.0602 8.30625L34.1404 9.45398C33.9839 9.52376 33.8058 9.47078 33.6012 9.50686C34.1212 8.86667 34.6604 8.81379 35.2093 8.33728L34.6773 8.43108C34.8193 8.27946 34.9758 8.20968 35.0913 8.14711C35.2069 8.08455 35.3369 8.10382 35.3489 7.93293C34.6075 8.27462 33.8733 8.65723 33.1391 9.03984C32.7516 9.23475 32.3712 9.47058 32.0632 9.39833C31.8537 9.64622 31.8417 9.81712 31.8368 10.0289C31.8657 10.1926 31.8536 10.3635 31.8416 10.5344C31.6634 11.1987 31.6488 11.8342 31.668 12.4215C31.6679 13.1388 31.7761 13.7526 32.0817 14.2894C32.1997 14.4795 32.4187 14.5253 32.657 14.4411C36.8815 12.557 35.4925 13.7723 34.4474 17.4164L33.2601 21.9293C33.1951 22.2783 33.1854 22.702 32.8267 23.0606C32.7858 23.0678 32.7593 23.1568 32.7665 23.1978C32.5955 23.903 32.4245 24.6082 32.4172 25.2846C32.3882 25.8382 32.3256 26.4399 32.222 27.0489L31.8052 29.9493C31.5377 32.0216 31.3039 34.0459 31.1183 36.1039C31.0243 37.0065 31.3155 37.4614 32.0135 37.5915C32.0616 37.6252 32.1026 37.618 32.1844 37.6036C32.2325 37.6373 32.3144 37.6228 32.3553 37.6156C32.6682 37.4761 33.0221 37.3293 33.3278 37.1488C33.6407 37.0092 33.9946 36.8625 34.3003 36.682C34.9189 36.3619 35.629 36.3211 36.1538 35.4691L36.1948 35.4619C36.4668 35.3295 36.5125 35.1105 36.5174 34.8987C36.5222 34.6869 36.4452 34.4895 36.4428 34.2368C36.4767 33.4713 36.6332 32.6843 36.5852 31.9333C36.5395 31.435 36.6912 30.8598 36.7611 30.299C36.8382 29.7791 36.9081 29.2182 36.9443 28.7056C37.0021 28.3156 36.9781 27.9401 37.1514 27.4876C37.1852 27.4395 37.1707 27.3577 37.1635 27.3167C37.0456 27.1266 37.255 26.8787 37.2599 26.6669L37.2816 26.0723L37.2672 25.9905C37.3804 25.6752 37.65 25.2901 37.4695 24.9844C37.4695 24.9844 37.5032 24.9363 37.496 24.8953C37.6549 24.361 37.797 24.2094 38.3073 23.9928L38.4902 23.834C38.2038 23.8845 37.9655 23.9687 37.7344 24.0939C37.537 24.1708 37.4817 24.0962 37.5684 23.87C37.8139 23.8267 38.0185 23.7906 38.2568 23.7064C38.4205 23.6775 38.5095 23.704 38.5962 23.4778C37.8813 23.7304 37.8404 23.7376 37.6478 23.6028L38.2232 23.0372L37.8333 22.9794L38.9285 22.491C39.4388 22.2744 39.9347 21.976 40.3655 22.0266C40.4474 22.0122 40.5702 21.9905 40.6376 21.8943C40.8061 21.6536 40.9842 21.7066 41.1142 21.7258C41.3404 21.8125 41.5715 21.6874 41.8435 21.555L44.1014 20.4818L43.9354 20.258C43.9691 20.2098 44.0028 20.1617 44.0437 20.1545C44.826 19.8056 45.5939 19.3748 46.3835 19.0668C47.0502 18.7805 47.6954 18.3714 48.4488 17.8588C48.095 18.0056 47.8639 18.1307 47.6328 18.2558L47.6112 18.1331C47.9169 17.9526 48.2491 17.6831 48.562 17.5435C48.9086 17.3558 49.2288 17.2572 49.5417 17.1176L49.4696 16.7084L50.5023 16.1044L51.1209 15.7843C51.3857 15.6111 51.6384 15.6087 51.9153 15.2645C51.6144 15.2332 51.2966 15.5846 51.0222 15.4642L51.8913 14.889C52.1488 14.6749 52.4064 14.4607 52.6712 14.2874C52.664 14.2465 52.6159 14.2128 52.6159 14.2128L52.2427 14.4895L52.2211 14.3668L52.4377 14.1598C52.9192 13.7796 53.29 13.2501 53.6679 12.7615C53.8774 12.5136 53.9159 12.2537 54.0026 12.0274C54.2024 11.4859 54.5804 10.9973 54.7803 10.4558C55.2065 9.28361 55.3462 8.16197 54.942 7.30502C54.7471 6.91747 54.4847 6.62619 54.2489 6.24584C54.0059 5.82459 53.4932 5.78841 53.1418 5.47064C53.1346 5.42972 53.0937 5.43693 53.0937 5.43693C52.788 5.61742 52.7447 5.3719 52.5665 5.31892C52.4294 5.25872 52.3259 5.15039 52.1478 5.09741L50.1765 4.68554C49.2113 4.476 48.145 4.41086 47.033 4.56475ZM45.4789 15.851C45.6931 16.1085 46.0662 15.8318 46.42 15.685L47.0531 15.4468C47.0218 15.7477 46.8244 15.8247 46.6679 15.8944C46.2057 16.1447 45.7436 16.395 45.2742 16.6043L44.5881 17.0206C44.8769 17.2229 45.1273 16.9678 45.4811 16.821C45.3198 17.1026 45.1297 17.2205 44.9732 17.2903L43.6878 17.8967C43.565 17.9183 43.4495 17.9809 43.3821 18.0771C42.9704 18.6138 42.4794 18.7004 42.0172 18.9507C38.0235 22.1442 38.4814 18.5193 39.9789 15.7659C40.2317 15.0463 40.4364 14.2929 40.6821 13.5323C41.6837 11.0773 41.2938 11.0195 44.1534 10.009C44.943 9.701 45.7734 9.3858 46.5967 9.02968C47.0661 8.82033 47.509 8.70005 47.9254 8.66881C48.2937 8.60387 48.6957 8.4908 49.0711 8.46678C49.3985 8.40906 49.7331 8.39226 50.1495 8.36103C49.7162 8.77497 49.4225 8.78456 49.0952 8.84228C49.5886 9.00843 50.253 8.46935 50.8138 8.53924L50.5225 8.80156L51.0689 8.7896L50.8932 8.98936L50.9413 9.02306C51.5358 9.04481 51.9281 9.35536 52.2193 9.81033C52.4407 10.1088 52.2601 10.5204 52.0459 10.9801C51.6028 11.8177 51.0082 12.5132 50.2548 13.0258L47.8235 14.5515C47.0219 15.0304 46.2468 15.4202 45.4789 15.851ZM38.695 22.3634C38.695 22.3634 38.6613 22.4115 38.6686 22.4524L38.0355 22.6906C38.0789 22.2188 38.1126 22.1707 38.3509 22.0865C39.1332 21.7376 39.9227 21.4296 40.6714 21.1288C41.1408 20.9195 41.1408 20.9195 41.7978 21.0568C41.1046 21.4322 40.5726 21.526 39.9733 21.716C39.4148 21.8989 38.8371 22.2117 38.2907 22.2237L38.2305 22.3609L38.695 22.3634ZM44.4265 19.4541C44.8935 18.992 45.3701 18.8236 45.8347 18.8261C45.5169 19.1774 45.1559 19.2833 44.8285 19.341C44.7057 19.3627 44.583 19.3843 44.4265 19.4541ZM43.7116 19.7067C43.9692 19.4925 44.234 19.3193 44.4265 19.4541L43.7116 19.7067ZM46.3643 18.4795C46.215 18.5902 46.0658 18.7009 45.8684 18.7779C45.9888 18.5035 46.2006 18.5084 46.3643 18.4795ZM42.1012 20.6236C41.9447 20.6933 41.7883 20.7631 41.6655 20.7848L41.6583 20.7439L42.1277 20.5345C42.1349 20.5754 42.094 20.5826 42.1012 20.6236ZM38.6371 23.4706L38.6299 23.4296C38.6371 23.4706 38.5962 23.4778 38.5962 23.4778L38.6371 23.4706Z" fill="url(#paint1_linear_208_7)"/>
<path d="M63.0729 21.4825C59.8523 21.1643 63.3453 18.481 63.9013 18.0454C64.39 17.7061 68.1357 15.0204 68.5546 14.5246L71.2845 11.3429L71.5879 10.9097C71.8961 10.2647 72.2524 9.65333 72.8831 9.16239C73.0733 9.04448 73.2562 8.88564 73.3501 8.70032C73.5668 8.49334 73.6944 8.25988 73.7811 8.03364C73.9063 7.54744 73.9425 7.03476 74.0677 6.54856C74.0653 6.29582 73.9281 6.23563 73.6898 6.31984C73.3841 6.50032 73.0375 6.68802 72.739 6.90942C72.3249 7.19339 71.8844 7.56642 71.4776 7.8913C69.7155 9.3834 61.1934 18.4807 61.8896 14.7716C62.0245 13.8618 63.1157 7.84681 63.448 6.85999C63.501 6.68188 63.5058 6.47006 63.5179 6.29917C63.6238 5.94295 63.6552 5.64208 63.7274 5.33399C63.8334 4.97777 63.8984 4.62876 63.7323 4.40489C63.4965 4.02455 63.1861 3.69956 62.7745 3.51898L61.677 3.03743C60.9429 2.70275 60.2039 2.57989 59.2844 2.86861C58.9643 2.96725 58.5623 3.08032 58.3456 3.28729C57.4593 7.1143 55.896 15.955 55.3851 19.758C55.2335 19.6159 55.041 19.4811 54.8557 19.3872C54.7882 19.4835 54.7545 19.5316 54.7618 19.5725C54.4752 20.3403 54.4414 21.1058 54.3595 21.8375C54.3016 22.2274 54.3738 22.6366 54.7854 22.8172C54.8889 22.9255 54.9996 23.0748 54.9875 23.2457C55.0716 24.2013 55.0739 25.1713 55.1171 26.1341C55.1674 27.8551 55.1431 29.6314 55.1934 31.3525C55.1548 31.6124 55.1981 31.8579 55.2751 32.0553C55.3328 32.3827 55.7925 32.597 56.1127 32.4983C56.1945 32.4839 56.2692 32.4285 56.3029 32.3804C56.7025 32.0146 56.7025 32.0146 56.9239 32.3131C57.0322 32.2096 57.0852 32.0315 57.2079 32.0099C57.6773 31.8005 57.8098 31.3552 57.9013 30.9172L58.1928 29.2203C58.3349 28.3514 58.518 27.4752 58.701 26.5991C59.1973 23.4316 59.7074 24.6496 61.7773 25.3816C62.2708 25.5478 62.8653 25.5695 63.3322 25.8247C63.5657 25.9523 63.7847 25.9981 64.0037 26.0439C64.579 26.1956 65.147 26.3064 65.6476 26.5134C66.401 26.7181 67.1544 26.9228 67.9463 26.8676C68.4445 26.8219 68.95 26.8172 69.4555 26.8124C69.5782 26.7908 69.701 26.7691 69.7756 26.7138C70.1006 26.4033 70.3365 26.0664 70.6134 25.7222C70.8228 25.4743 70.936 25.159 71.131 24.8293C70.8928 24.1962 70.3561 23.7846 69.752 23.4692C69.2442 23.2212 68.7026 23.0213 68.1274 22.8696C67.2296 22.5638 66.2644 22.3542 65.3329 22.0966L64.0525 21.7738C63.2654 21.6173 63.9008 21.6318 63.0729 21.4825ZM67.7085 23.3654C67.3041 23.2257 66.8661 23.1342 66.4087 23.1726C66.0741 23.1894 65.665 23.2616 65.5928 22.8524C65.5447 22.8187 65.5447 22.8187 65.5037 22.8259C65.1475 22.7199 64.8731 22.5996 64.4904 22.5827C64.2305 22.5441 63.985 22.5874 63.7515 22.4598C63.7443 22.4189 63.6552 22.3924 63.5806 22.4477C63.1521 22.6499 62.9114 22.4813 62.6708 22.3128C62.2857 22.0432 61.8741 21.8626 61.2675 22.0117C60.8993 22.0767 60.584 21.9635 60.3963 21.6169C60.3337 21.5013 60.1965 21.4411 60.0593 21.3809L59.6068 21.2076C59.6405 21.1594 59.6405 21.1594 59.6333 21.1185L59.9751 21.1426L60.6587 21.1909C60.7068 21.2246 60.7477 21.2174 60.7887 21.2101L62.4398 21.7207C62.6179 21.7736 62.8369 21.8194 63.0078 21.8315C63.3496 21.8556 63.7251 21.8316 63.973 22.041C64.0211 22.0747 64.0211 22.0747 64.0621 22.0675C64.594 21.9737 64.9863 22.2843 65.4581 22.3276C65.6362 22.3806 65.8143 22.4336 65.9178 22.5419C66.274 22.6479 66.5749 22.6792 66.9504 22.6552C67.2103 22.6938 67.5112 22.7251 67.6772 22.949C67.8289 23.091 68.0888 23.1295 68.2332 23.2307C68.3704 23.2909 68.5822 23.2957 68.5774 23.5075L67.7085 23.3654ZM69.0852 23.7555C68.8999 23.6616 68.7218 23.6086 68.6183 23.5003C68.8638 23.457 69.001 23.5172 69.1526 23.6592C69.1117 23.6664 69.1189 23.7074 69.0852 23.7555ZM67.8601 23.5074C67.6218 23.5916 67.6218 23.5916 67.2848 23.3557C67.4557 23.3677 67.5857 23.387 67.7085 23.3654L67.8601 23.5074Z" fill="url(#paint2_linear_208_7)"/>
<path d="M11.696 20.9438C11.3348 21.767 8.73202 27.5843 8.87228 22.8763C8.97349 22.0146 9.03379 21.1601 9.01224 20.3201C8.92803 20.0817 8.92566 19.829 8.77404 19.687C8.53336 19.5185 8.21806 19.4053 7.97738 19.2368C7.75835 19.191 7.61632 19.3426 7.54406 19.6507C7.47181 19.9588 7.40677 20.3078 7.37544 20.6087C7.26948 20.9649 7.28629 21.2995 7.21403 21.6075C7.01892 22.6546 6.85751 23.6534 6.98254 24.6018C7.03305 24.8883 6.9608 25.1963 6.96317 25.4491C6.81856 26.7825 6.7558 28.1016 6.65211 29.4278L6.50741 31.4786C6.45196 32.1212 5.85466 34.7159 5.84013 35.3513C5.72933 35.9194 5.82313 36.4513 5.78695 36.964C5.69769 38.3721 5.60123 39.7393 5.06907 41.2676C5.04258 41.3567 5.03773 41.5685 5.08587 41.6022C5.35303 41.6817 5.59371 41.8502 5.92829 41.8334C6.47468 41.8214 6.89831 41.8311 7.18949 42.2861C7.23762 42.3198 7.27854 42.3126 7.40852 42.3318C7.64198 42.4594 7.83937 42.3824 8.01995 41.9709C8.12591 41.6147 8.15002 41.2729 8.14765 41.0201C8.10476 37.9055 10.6015 33.1616 11.4131 30.1072C11.8777 29.3924 12.157 28.5837 12.4508 27.8568C14.8827 22.0274 13.363 28.2445 13.2636 32.9454C13.4465 33.5038 13.2539 34.0863 12.9192 34.8204C12.5701 35.4726 12.3172 36.1923 12.0235 36.9191C11.8236 37.4607 11.8573 37.4126 12.1799 37.5666C12.5577 37.7954 13.0969 37.7425 13.5277 37.7931C14.2185 37.8822 14.866 37.7259 15.6339 37.2951C16.0624 37.093 16.4427 36.8572 16.5873 36.241C16.6354 36.2747 16.6763 36.2675 16.6835 36.3084C16.8376 35.9859 16.9989 35.7043 17.1121 35.389L17.1939 35.3746C17.1 35.5599 17.1698 35.7164 17.2131 35.9619C17.6922 35.3289 18.1255 34.915 18.3519 34.2844C18.9057 32.8787 20.9017 28.6451 21.1281 27.2972C21.1811 27.1191 21.2341 26.941 21.4098 26.7412C21.3954 26.6594 21.4556 26.5222 21.5711 26.4597C22.0453 26.0385 22.2139 25.7978 22.3247 25.2298C22.3439 25.0998 22.4041 24.9626 22.3825 24.8399C22.3825 24.8399 22.4162 24.7917 22.498 24.7773C22.5053 24.8182 22.5534 24.8519 22.6015 24.8856C24.6986 20.5076 24.6143 20.9866 24.6355 24.6957L24.7582 24.6741C24.8955 24.017 25.0328 23.3599 25.211 22.6956L25.2591 22.7293L25.2952 22.9339C25.0882 23.4345 25.0038 23.9135 25.165 24.3492C25.1386 24.4383 25.2083 24.5947 25.1072 24.7391C24.852 25.2061 25.2925 25.5503 24.9554 26.0317C24.9217 26.0798 24.9361 26.1617 24.9843 26.1954C25.1888 26.8766 24.9576 27.719 24.9647 28.4772C24.9815 28.8118 24.9092 29.1199 24.8779 29.4207C24.837 29.4279 24.837 29.4279 24.7287 29.5314C24.6926 29.3268 24.7383 29.1078 24.7095 28.9441C24.565 29.5603 24.5432 30.1548 24.4661 30.6747C24.442 31.0165 24.4323 31.4401 24.3673 31.7891C24.408 33.2165 24.4752 34.5548 24.3258 36.1001C24.1741 36.6753 24.4243 37.1375 24.9779 37.1665C25.1488 37.1785 25.2788 37.1978 25.3341 37.2724C25.493 37.4554 25.6976 37.4193 25.9768 37.3279C26.2151 37.2437 26.3307 37.1811 26.4534 37.1594C26.9782 37.0247 27.0119 36.9766 27.1564 36.3604C27.2912 36.1679 27.4741 36.009 27.5271 35.8309C27.7631 35.494 27.869 35.1378 27.8329 34.9332C27.5562 34.56 27.7296 34.1075 27.6309 33.7874C27.4143 33.2771 27.8044 32.6176 27.5276 32.2445C27.4795 32.2108 27.5132 32.1627 27.4651 32.129C27.6818 31.2047 27.6266 30.4128 27.6869 29.5583C27.7038 29.1756 27.6942 28.8819 27.4077 28.9325C27.1093 28.4366 27.7184 27.8229 27.7401 27.2283C27.5909 27.339 27.5981 27.38 27.5572 27.3872L27.6632 26.3137C27.6416 26.1909 27.6681 26.1019 27.6609 26.0609C27.9354 25.464 27.9041 25.0476 27.702 24.6192C27.5985 24.5108 27.6515 24.3327 27.6708 24.2027C27.743 23.8946 28.1017 23.5361 27.772 23.341C27.7166 23.2664 27.7503 23.2183 27.7431 23.1774C28.0994 22.566 28.0056 22.0341 27.9937 21.4877C28.0082 20.8522 27.9409 20.2312 27.9289 19.6848C27.8761 19.1457 27.8497 18.5174 27.8305 17.9301C27.7994 16.7964 28.1365 15.5978 28.4592 14.3173C28.4448 14.2355 28.505 14.0983 28.5243 13.9683C28.4305 13.4363 28.3294 12.8635 27.7349 12.8417C27.694 12.8489 27.6459 12.8152 27.5568 12.7887C27.3354 12.4902 27.0394 12.2471 26.7096 12.0521C26.3799 11.8571 25.9419 11.7655 25.5254 11.7968C25.1018 11.7871 24.772 12.3094 24.3724 12.6752C23.2963 13.7509 22.3863 15.0506 21.6616 16.4441C21.2402 17.4045 20.6744 18.2637 20.2459 19.1831C19.9425 19.6163 19.721 20.0351 19.6367 20.5141C18.3823 22.9715 16.7692 25.7874 17.8603 20.4898C17.9591 20.0926 17.9279 19.6762 18.0531 19.19C18.2963 18.1767 18.1951 19.0384 18.0701 18.09C18.0557 18.0082 18.0003 17.9336 18.0749 17.8782C18.2555 17.4666 18.2122 17.2211 18.1208 16.9419C18.0654 16.8673 18.0968 16.5664 18.0679 16.4027C17.8947 16.1379 17.5529 16.1138 17.0763 16.2822C16.6069 16.4916 16.2579 16.4265 15.8607 16.3278C15.6345 16.2411 15.2445 16.1833 15.0134 16.3084C14.2383 16.6983 13.5402 17.2855 13.1189 18.2458L12.6494 19.1724C12.3749 19.7693 11.9704 20.3469 11.696 20.9438ZM19.9928 21.3373C20.1373 20.7212 21.1486 18.5598 21.5675 18.064C21.1991 18.8463 21.1244 19.6189 20.6188 20.3409C20.5514 20.4372 20.4912 20.5744 20.5128 20.6971C20.4671 20.9162 20.2985 21.1569 19.9928 21.3373ZM17.2408 27.2654C17.4696 26.1702 18.4255 23.9343 18.9455 23.2941C18.9816 23.4987 18.9021 23.7658 18.8082 23.9512C18.281 24.5504 18.0547 25.181 17.9102 25.7972C17.7705 26.2016 17.6308 26.6059 17.4767 26.9284C17.4165 27.0656 17.3491 27.1619 17.2408 27.2654ZM13.1958 35.9108C13.2223 35.8217 13.2079 35.7399 13.1863 35.6171C13.22 35.569 13.3283 35.4655 13.3813 35.2874L13.4173 35.492L13.2777 35.8963L13.1958 35.9108Z" fill="url(#paint3_linear_208_7)"/>
<path d="M46.033 5.56482C46.122 5.5913 46.2183 5.65871 46.3001 5.64428C46.8537 5.67324 47.441 5.65407 47.9874 5.64211L48.7673 5.75776C48.618 5.86846 48.5362 5.88289 48.4544 5.89732L47.3207 5.92845C46.6515 5.96206 45.9751 5.95474 45.2193 6.21459C44.9064 6.35415 44.6199 6.40466 44.2926 6.46238L43.3514 6.62833C43.1468 6.66441 42.9278 6.61865 42.6895 6.70286C42.0155 6.94828 41.3415 7.1937 40.6603 7.3982L37.4733 8.46646C37.0785 8.62046 36.7102 8.6854 36.3587 9.08491C36.2913 9.18118 36.1758 9.24374 36.0602 9.30631L33.1404 10.454C32.9839 10.5238 32.8058 10.4708 32.6012 10.5069C33.1212 9.86673 33.6604 9.81385 34.2093 9.33734L33.6773 9.43114C33.8193 9.27952 33.9758 9.20974 34.0913 9.14718C34.2069 9.08461 34.3369 9.10388 34.3489 8.93299C33.6075 9.27468 32.8733 9.65729 32.1391 10.0399C31.7516 10.2348 31.3712 10.4706 31.0632 10.3984C30.8537 10.6463 30.8417 10.8172 30.8368 11.029C30.8657 11.1927 30.8536 11.3636 30.8416 11.5345C30.6634 12.1988 30.6488 12.8342 30.668 13.4215C30.6679 14.1388 30.7761 14.7526 31.0817 15.2894C31.1997 15.4796 31.4187 15.5253 31.657 15.4411C35.8815 13.557 34.4925 14.7724 33.4474 18.4164L32.2601 22.9294C32.1951 23.2784 32.1854 23.702 31.8267 24.0606C31.7858 24.0678 31.7593 24.1569 31.7665 24.1978C31.5955 24.903 31.4245 25.6083 31.4172 26.2846C31.3882 26.8382 31.3256 27.44 31.222 28.0489L30.8052 30.9493C30.5377 33.0217 30.3039 35.046 30.1183 37.1039C30.0243 38.0065 30.3155 38.4615 31.0135 38.5916C31.0616 38.6253 31.1026 38.6181 31.1844 38.6036C31.2325 38.6373 31.3144 38.6229 31.3553 38.6157C31.6682 38.4761 32.0221 38.3293 32.3278 38.1489C32.6407 38.0093 32.9946 37.8625 33.3003 37.682C33.9189 37.362 34.629 37.3212 35.1538 36.4692L35.1948 36.462C35.4668 36.3296 35.5125 36.1106 35.5174 35.8988C35.5222 35.6869 35.4452 35.4896 35.4428 35.2368C35.4767 34.4714 35.6332 33.6843 35.5852 32.9333C35.5395 32.4351 35.6912 31.8598 35.7611 31.299C35.8382 30.7791 35.9081 30.2183 35.9443 29.7056C36.0021 29.3157 35.9781 28.9402 36.1514 28.4877C36.1852 28.4396 36.1707 28.3577 36.1635 28.3168C36.0456 28.1266 36.255 27.8787 36.2599 27.6669L36.2816 27.0724L36.2672 26.9906C36.3804 26.6753 36.65 26.2902 36.4695 25.9845C36.4695 25.9845 36.5032 25.9363 36.496 25.8954C36.6549 25.3611 36.797 25.2095 37.3073 24.9929L37.4902 24.8341C37.2038 24.8846 36.9655 24.9688 36.7344 25.0939C36.537 25.1709 36.4817 25.0963 36.5684 24.87C36.8139 24.8267 37.0185 24.7907 37.2568 24.7065C37.4205 24.6776 37.5095 24.7041 37.5962 24.4778C36.8813 24.7305 36.8404 24.7377 36.6478 24.6029L37.2232 24.0373L36.8333 23.9795L37.9285 23.491C38.4388 23.2745 38.9347 22.9761 39.3655 23.0267C39.4474 23.0122 39.5702 22.9906 39.6376 22.8943C39.8061 22.6536 39.9842 22.7066 40.1142 22.7259C40.3404 22.8126 40.5715 22.6874 40.8435 22.5551L43.1014 21.4819L42.9354 21.258C42.9691 21.2099 43.0028 21.1617 43.0437 21.1545C43.826 20.8056 44.5939 20.3749 45.3835 20.0669C46.0502 19.7806 46.6954 19.3715 47.4488 18.8589C47.095 19.0056 46.8639 19.1308 46.6328 19.2559L46.6112 19.1331C46.9169 18.9527 47.2491 18.6831 47.562 18.5436C47.9086 18.3559 48.2288 18.2572 48.5417 18.1177L48.4696 17.7085L49.5023 17.1045L50.1209 16.7844C50.3857 16.6111 50.6384 16.6088 50.9153 16.2646C50.6144 16.2333 50.2966 16.5847 50.0222 16.4643L50.8913 15.8891C51.1488 15.6749 51.4064 15.4607 51.6712 15.2875C51.664 15.2465 51.6159 15.2128 51.6159 15.2128L51.2427 15.4896L51.2211 15.3668L51.4377 15.1599C51.9192 14.7796 52.29 14.2501 52.6679 13.7616C52.8774 13.5137 52.9159 13.2537 53.0026 13.0275C53.2024 12.4859 53.5804 11.9974 53.7803 11.4558C54.2065 10.2837 54.3462 9.16203 53.942 8.30508C53.7471 7.91753 53.4847 7.62625 53.2489 7.24591C53.0059 6.82465 52.4932 6.78847 52.1418 6.4707C52.1346 6.42978 52.0937 6.43699 52.0937 6.43699C51.788 6.61748 51.7447 6.37196 51.5665 6.31898C51.4294 6.25878 51.3259 6.15045 51.1478 6.09748L49.1765 5.6856C48.2113 5.47606 47.145 5.41092 46.033 5.56482ZM44.4789 16.851C44.6931 17.1086 45.0662 16.8318 45.42 16.6851L46.0531 16.4469C46.0218 16.7477 45.8244 16.8247 45.6679 16.8945C45.2057 17.1448 44.7436 17.395 44.2742 17.6044L43.5881 18.0207C43.8769 18.2229 44.1273 17.9678 44.4811 17.821C44.3198 18.1026 44.1297 18.2206 43.9732 18.2903L42.6878 18.8967C42.565 18.9184 42.4495 18.9809 42.3821 19.0772C41.9704 19.6139 41.4794 19.7005 41.0172 19.9508C37.0235 23.1443 37.4814 19.5194 38.9789 16.766C39.2317 16.0463 39.4364 15.293 39.6821 14.5324C40.6837 12.0774 40.2938 12.0196 43.1534 11.009C43.943 10.7011 44.7734 10.3859 45.5967 10.0297C46.0661 9.82039 46.509 9.70011 46.9254 9.66887C47.2937 9.60394 47.6957 9.49086 48.0711 9.46685C48.3985 9.40912 48.7331 9.39232 49.1495 9.36109C48.7162 9.77503 48.4225 9.78462 48.0952 9.84234C48.5886 10.0085 49.253 9.46942 49.8138 9.5393L49.5225 9.80162L50.0689 9.78966L49.8932 9.98942L49.9413 10.0231C50.5358 10.0449 50.9281 10.3554 51.2193 10.8104C51.4407 11.1089 51.2601 11.5205 51.0459 11.9802C50.6028 12.8177 50.0082 13.5133 49.2548 14.0259L46.8235 15.5516C46.0219 16.0304 45.2468 16.4203 44.4789 16.851ZM37.695 23.3634C37.695 23.3634 37.6613 23.4115 37.6686 23.4525L37.0355 23.6907C37.0789 23.2189 37.1126 23.1708 37.3509 23.0866C38.1332 22.7377 38.9227 22.4297 39.6714 22.1289C40.1408 21.9196 40.1408 21.9196 40.7978 22.0568C40.1046 22.4322 39.5726 22.526 38.9733 22.7161C38.4148 22.899 37.8371 23.2118 37.2907 23.2237L37.2305 23.3609L37.695 23.3634ZM43.4265 20.4541C43.8935 19.9921 44.3701 19.8236 44.8347 19.8261C44.5169 20.1775 44.1559 20.2834 43.8285 20.3411C43.7057 20.3627 43.583 20.3844 43.4265 20.4541ZM42.7116 20.7068C42.9692 20.4926 43.234 20.3193 43.4265 20.4541L42.7116 20.7068ZM45.3643 19.4796C45.215 19.5903 45.0658 19.701 44.8684 19.778C44.9888 19.5036 45.2006 19.5084 45.3643 19.4796ZM41.1012 21.6236C40.9447 21.6934 40.7883 21.7632 40.6655 21.7848L40.6583 21.7439L41.1277 21.5346C41.1349 21.5755 41.094 21.5827 41.1012 21.6236ZM37.6371 24.4706L37.6299 24.4297C37.6371 24.4706 37.5962 24.4778 37.5962 24.4778L37.6371 24.4706Z" fill="url(#paint4_linear_208_7)"/>
<path d="M62.0729 22.4825C58.8523 22.1643 62.3453 19.481 62.9013 19.0454C63.39 18.7061 67.1357 16.0204 67.5546 15.5246L70.2845 12.343L70.5879 11.9098C70.8961 11.2647 71.2524 10.6534 71.8831 10.1625C72.0733 10.0445 72.2562 9.8857 72.3501 9.70038C72.5668 9.4934 72.6944 9.25994 72.7811 9.0337C72.9063 8.5475 72.9425 8.03482 73.0677 7.54862C73.0653 7.29589 72.9281 7.23569 72.6898 7.3199C72.3841 7.50038 72.0375 7.68808 71.739 7.90949C71.3249 8.19345 70.8844 8.56648 70.4776 8.89136C68.7155 10.3835 60.1934 19.4807 60.8896 15.7716C61.0245 14.8618 62.1157 8.84687 62.448 7.86005C62.501 7.68194 62.5058 7.47013 62.5179 7.29923C62.6238 6.94301 62.6552 6.64214 62.7274 6.33405C62.8334 5.97783 62.8984 5.62883 62.7323 5.40495C62.4965 5.02461 62.1861 4.69962 61.7745 4.51904L60.677 4.03749C59.9429 3.70281 59.2039 3.57995 58.2844 3.86867C57.9643 3.96731 57.5623 4.08038 57.3456 4.28735C56.4593 8.11436 54.896 16.955 54.3851 20.758C54.2335 20.616 54.041 20.4812 53.8557 20.3873C53.7882 20.4836 53.7545 20.5317 53.7618 20.5726C53.4752 21.3404 53.4414 22.1058 53.3595 22.8375C53.3016 23.2275 53.3738 23.6367 53.7854 23.8172C53.8889 23.9256 53.9996 24.0748 53.9875 24.2457C54.0716 25.2013 54.0739 26.1713 54.1171 27.1341C54.1674 28.8552 54.1431 30.6315 54.1934 32.3525C54.1548 32.6125 54.1981 32.858 54.2751 33.0554C54.3328 33.3827 54.7925 33.597 55.1127 33.4984C55.1945 33.484 55.2692 33.4286 55.3029 33.3805C55.7025 33.0147 55.7025 33.0147 55.9239 33.3132C56.0322 33.2097 56.0852 33.0316 56.2079 33.0099C56.6773 32.8006 56.8098 32.3553 56.9013 31.9172L57.1928 30.2203C57.3349 29.3514 57.518 28.4753 57.701 27.5992C58.1973 24.4316 58.7074 25.6497 60.7773 26.3817C61.2708 26.5478 61.8653 26.5696 62.3322 26.8248C62.5657 26.9524 62.7847 26.9981 63.0037 27.0439C63.579 27.1956 64.147 27.3064 64.6476 27.5135C65.401 27.7182 66.1544 27.9229 66.9463 27.8677C67.4445 27.822 67.95 27.8172 68.4555 27.8125C68.5782 27.7909 68.701 27.7692 68.7756 27.7139C69.1006 27.4034 69.3365 27.0665 69.6134 26.7223C69.8228 26.4744 69.936 26.1591 70.131 25.8294C69.8928 25.1963 69.3561 24.7846 68.752 24.4692C68.2442 24.2212 67.7026 24.0214 67.1274 23.8697C66.2296 23.5638 65.2644 23.3543 64.3329 23.0966L63.0525 22.7739C62.2654 22.6173 62.9008 22.6319 62.0729 22.4825ZM66.7085 24.3654C66.3041 24.2258 65.8661 24.1342 65.4087 24.1727C65.0741 24.1895 64.665 24.2617 64.5928 23.8525C64.5447 23.8187 64.5447 23.8187 64.5037 23.826C64.1475 23.72 63.8731 23.5996 63.4904 23.5827C63.2305 23.5442 62.985 23.5875 62.7515 23.4599C62.7443 23.4189 62.6552 23.3924 62.5806 23.4478C62.1521 23.6499 61.9114 23.4814 61.6708 23.3129C61.2857 23.0432 60.8741 22.8627 60.2675 23.0118C59.8993 23.0767 59.584 22.9636 59.3963 22.6169C59.3337 22.5014 59.1965 22.4412 59.0593 22.381L58.6068 22.2076C58.6405 22.1595 58.6405 22.1595 58.6333 22.1186L58.9751 22.1427L59.6587 22.1909C59.7068 22.2246 59.7477 22.2174 59.7887 22.2102L61.4398 22.7207C61.6179 22.7737 61.8369 22.8195 62.0078 22.8315C62.3496 22.8556 62.7251 22.8316 62.973 23.0411C63.0211 23.0748 63.0211 23.0748 63.0621 23.0676C63.594 22.9738 63.9863 23.2843 64.4581 23.3277C64.6362 23.3807 64.8143 23.4337 64.9178 23.542C65.274 23.648 65.5749 23.6793 65.9504 23.6553C66.2103 23.6938 66.5112 23.7251 66.6772 23.949C66.8289 24.0911 67.0888 24.1296 67.2332 24.2307C67.3704 24.2909 67.5822 24.2958 67.5774 24.5076L66.7085 24.3654ZM68.0852 24.7556C67.8999 24.6617 67.7218 24.6087 67.6183 24.5004C67.8638 24.4571 68.001 24.5173 68.1526 24.6593C68.1117 24.6665 68.1189 24.7074 68.0852 24.7556ZM66.8601 24.5075C66.6218 24.5917 66.6218 24.5917 66.2848 24.3558C66.4557 24.3678 66.5857 24.3871 66.7085 24.3654L66.8601 24.5075Z" fill="url(#paint5_linear_208_7)"/>
<defs>
<linearGradient id="paint0_linear_208_7" x1="37.0309" y1="6.32838" x2="42.2404" y2="35.8726" gradientUnits="userSpaceOnUse">
<stop stop-color="white"/>
<stop offset="1" stop-color="white" stop-opacity="0.5"/>
</linearGradient>
<linearGradient id="paint1_linear_208_7" x1="37.0309" y1="6.32838" x2="42.2404" y2="35.8726" gradientUnits="userSpaceOnUse">
<stop stop-color="white"/>
<stop offset="1" stop-color="white" stop-opacity="0.5"/>
</linearGradient>
<linearGradient id="paint2_linear_208_7" x1="37.0309" y1="6.32838" x2="42.2404" y2="35.8726" gradientUnits="userSpaceOnUse">
<stop stop-color="white"/>
<stop offset="1" stop-color="white" stop-opacity="0.5"/>
</linearGradient>
<linearGradient id="paint3_linear_208_7" x1="36.0309" y1="7.32844" x2="41.2404" y2="36.8727" gradientUnits="userSpaceOnUse">
<stop stop-opacity="0.75"/>
<stop offset="1"/>
</linearGradient>
<linearGradient id="paint4_linear_208_7" x1="36.0309" y1="7.32844" x2="41.2404" y2="36.8727" gradientUnits="userSpaceOnUse">
<stop stop-opacity="0.75"/>
<stop offset="1"/>
</linearGradient>
<linearGradient id="paint5_linear_208_7" x1="36.0309" y1="7.32844" x2="41.2404" y2="36.8727" gradientUnits="userSpaceOnUse">
<stop stop-opacity="0.75"/>
<stop offset="1"/>
</linearGradient>
</defs>
</svg>
